<mxfile host="Electron" modified="2023-04-22T11:38:10.362Z" agent="Mozilla/5.0 (X11; Linux x86_64) AppleWebKit/537.36 (KHTML, like Gecko) draw.io/21.1.2 Chrome/106.0.5249.199 Electron/21.4.3 Safari/537.36" etag="WYDZSEByLqb1ZCjb6hhe" version="21.1.2" type="device">
  <diagram id="XdXDwyR-r_PqrQyKESN_" name="Page-1">
    <mxGraphModel dx="1195" dy="673" grid="1" gridSize="10" guides="1" tooltips="1" connect="1" arrows="1" fold="1" page="1" pageScale="1" pageWidth="1100" pageHeight="850" math="0" shadow="0">
      <root>
        <mxCell id="0" />
        <mxCell id="1" parent="0" />
        <mxCell id="srju9PipdsmLbo2pWrTp-32" value="" style="ellipse;whiteSpace=wrap;html=1;sketch=0;strokeColor=#000000;strokeWidth=0.7;fontFamily=Helvetica;fontSize=7;fontColor=none;fillColor=default;opacity=50;noLabel=1;" parent="1" vertex="1">
          <mxGeometry x="512.25" y="305" width="25.5" height="45" as="geometry" />
        </mxCell>
        <mxCell id="D1LdL2bt-GOxow9vJPIf-43" value="&lt;font style=&quot;&quot;&gt;&lt;font style=&quot;font-size: 14px;&quot;&gt;painting sequence&lt;/font&gt;&lt;br&gt;&lt;/font&gt;" style="text;html=1;align=center;verticalAlign=middle;resizable=0;points=[];autosize=1;strokeColor=none;fillColor=none;fontSize=17;fontFamily=Helvetica;fontColor=default;" parent="1" vertex="1">
          <mxGeometry x="335" y="265" width="140" height="30" as="geometry" />
        </mxCell>
        <mxCell id="D1LdL2bt-GOxow9vJPIf-46" value="&lt;font style=&quot;&quot;&gt;&lt;font style=&quot;font-size: 14px;&quot;&gt;slicing order&lt;/font&gt;&lt;br&gt;&lt;/font&gt;" style="text;html=1;align=center;verticalAlign=middle;resizable=0;points=[];autosize=1;strokeColor=none;fillColor=none;fontSize=17;fontFamily=Helvetica;fontColor=default;" parent="1" vertex="1">
          <mxGeometry x="370" y="300" width="100" height="30" as="geometry" />
        </mxCell>
        <mxCell id="D1LdL2bt-GOxow9vJPIf-71" value="&lt;font style=&quot;&quot;&gt;&lt;font style=&quot;font-size: 14px;&quot;&gt;orientations&lt;/font&gt;&lt;br&gt;&lt;/font&gt;" style="text;html=1;align=center;verticalAlign=middle;resizable=0;points=[];autosize=1;strokeColor=none;fillColor=none;fontSize=17;fontFamily=Helvetica;fontColor=default;" parent="1" vertex="1">
          <mxGeometry x="370" y="330" width="100" height="30" as="geometry" />
        </mxCell>
        <mxCell id="srju9PipdsmLbo2pWrTp-1" value="" style="shape=curlyBracket;whiteSpace=wrap;html=1;rounded=1;flipH=1;labelPosition=right;verticalLabelPosition=middle;align=left;verticalAlign=middle;direction=south;strokeWidth=0.7;" parent="1" vertex="1">
          <mxGeometry x="491.5" y="250" width="67" height="15" as="geometry" />
        </mxCell>
        <mxCell id="srju9PipdsmLbo2pWrTp-12" value="4" style="text;html=1;strokeColor=none;fillColor=none;align=center;verticalAlign=middle;whiteSpace=wrap;rounded=0;sketch=0;fontFamily=Helvetica;fontSize=13;fontColor=default;opacity=50;" parent="1" vertex="1">
          <mxGeometry x="500" y="272" width="10" height="15" as="geometry" />
        </mxCell>
        <mxCell id="srju9PipdsmLbo2pWrTp-13" value="2" style="text;html=1;strokeColor=none;fillColor=none;align=center;verticalAlign=middle;whiteSpace=wrap;rounded=0;sketch=0;fontFamily=Helvetica;fontSize=13;fontColor=default;opacity=50;" parent="1" vertex="1">
          <mxGeometry x="540" y="272" width="10" height="15" as="geometry" />
        </mxCell>
        <mxCell id="srju9PipdsmLbo2pWrTp-14" value="3" style="text;html=1;strokeColor=none;fillColor=none;align=center;verticalAlign=middle;whiteSpace=wrap;rounded=0;sketch=0;fontFamily=Helvetica;fontSize=13;fontColor=default;opacity=50;" parent="1" vertex="1">
          <mxGeometry x="580" y="272" width="10" height="15" as="geometry" />
        </mxCell>
        <mxCell id="srju9PipdsmLbo2pWrTp-15" value="1" style="text;html=1;strokeColor=none;fillColor=none;align=center;verticalAlign=middle;whiteSpace=wrap;rounded=0;sketch=0;fontFamily=Helvetica;fontSize=13;fontColor=default;opacity=50;" parent="1" vertex="1">
          <mxGeometry x="620" y="272" width="10" height="15" as="geometry" />
        </mxCell>
        <mxCell id="srju9PipdsmLbo2pWrTp-34" style="edgeStyle=orthogonalEdgeStyle;shape=connector;rounded=0;orthogonalLoop=1;jettySize=auto;html=1;dashed=1;dashPattern=1 1;labelBackgroundColor=default;strokeColor=default;fontFamily=Helvetica;fontSize=7;fontColor=none;endArrow=classic;endSize=2;strokeWidth=0.7;endFill=1;" parent="1" source="srju9PipdsmLbo2pWrTp-16" edge="1">
          <mxGeometry relative="1" as="geometry">
            <mxPoint x="565" y="291" as="targetPoint" />
            <Array as="points">
              <mxPoint x="525" y="300" />
              <mxPoint x="565" y="300" />
            </Array>
          </mxGeometry>
        </mxCell>
        <mxCell id="srju9PipdsmLbo2pWrTp-16" value="2" style="text;html=1;strokeColor=none;fillColor=none;align=center;verticalAlign=middle;whiteSpace=wrap;rounded=0;sketch=0;fontFamily=Helvetica;fontSize=13;fontColor=default;opacity=50;" parent="1" vertex="1">
          <mxGeometry x="520" y="310" width="10" height="10" as="geometry" />
        </mxCell>
        <mxCell id="srju9PipdsmLbo2pWrTp-17" value="3" style="text;html=1;strokeColor=none;fillColor=none;align=center;verticalAlign=middle;whiteSpace=wrap;rounded=0;sketch=0;fontFamily=Helvetica;fontSize=13;fontColor=default;opacity=50;" parent="1" vertex="1">
          <mxGeometry x="560" y="310" width="10" height="10" as="geometry" />
        </mxCell>
        <mxCell id="srju9PipdsmLbo2pWrTp-18" value="1" style="text;html=1;strokeColor=none;fillColor=none;align=center;verticalAlign=middle;whiteSpace=wrap;rounded=0;sketch=0;fontFamily=Helvetica;fontSize=13;fontColor=default;opacity=50;" parent="1" vertex="1">
          <mxGeometry x="600" y="310" width="10" height="10" as="geometry" />
        </mxCell>
        <mxCell id="srju9PipdsmLbo2pWrTp-37" style="edgeStyle=orthogonalEdgeStyle;shape=connector;rounded=0;orthogonalLoop=1;jettySize=auto;html=1;entryX=0.5;entryY=0;entryDx=0;entryDy=0;dashed=1;dashPattern=1 1;labelBackgroundColor=default;strokeColor=default;strokeWidth=0.7;fontFamily=Helvetica;fontSize=7;fontColor=none;endArrow=classic;endFill=1;endSize=2;" parent="1" source="srju9PipdsmLbo2pWrTp-19" target="srju9PipdsmLbo2pWrTp-36" edge="1">
          <mxGeometry relative="1" as="geometry">
            <Array as="points">
              <mxPoint x="525" y="360" />
              <mxPoint x="563" y="360" />
            </Array>
          </mxGeometry>
        </mxCell>
        <mxCell id="srju9PipdsmLbo2pWrTp-19" value="*" style="text;html=1;strokeColor=none;fillColor=none;align=center;verticalAlign=middle;whiteSpace=wrap;rounded=0;sketch=0;fontFamily=Helvetica;fontSize=13;fontColor=default;opacity=50;" parent="1" vertex="1">
          <mxGeometry x="520" y="345" width="10" as="geometry" />
        </mxCell>
        <mxCell id="srju9PipdsmLbo2pWrTp-20" value="V" style="text;html=1;strokeColor=none;fillColor=none;align=center;verticalAlign=middle;whiteSpace=wrap;rounded=0;sketch=0;fontFamily=Helvetica;fontSize=13;fontColor=default;opacity=50;" parent="1" vertex="1">
          <mxGeometry x="560" y="340" width="10" height="10" as="geometry" />
        </mxCell>
        <mxCell id="srju9PipdsmLbo2pWrTp-21" value="H" style="text;html=1;strokeColor=none;fillColor=none;align=center;verticalAlign=middle;whiteSpace=wrap;rounded=0;sketch=0;fontFamily=Helvetica;fontSize=13;fontColor=default;opacity=50;" parent="1" vertex="1">
          <mxGeometry x="600" y="340" width="10" height="10" as="geometry" />
        </mxCell>
        <mxCell id="srju9PipdsmLbo2pWrTp-22" value="" style="shape=curlyBracket;whiteSpace=wrap;html=1;rounded=1;flipH=1;labelPosition=right;verticalLabelPosition=middle;align=left;verticalAlign=middle;direction=south;strokeWidth=0.7;" parent="1" vertex="1">
          <mxGeometry x="571.5" y="250" width="67" height="15" as="geometry" />
        </mxCell>
        <mxCell id="srju9PipdsmLbo2pWrTp-23" value="&lt;font style=&quot;font-size: 10px;&quot;&gt;left&lt;/font&gt;" style="text;html=1;align=center;verticalAlign=middle;resizable=0;points=[];autosize=1;strokeColor=none;fillColor=none;fontSize=13;fontFamily=Helvetica;fontColor=default;" parent="1" vertex="1">
          <mxGeometry x="505" y="227.5" width="40" height="30" as="geometry" />
        </mxCell>
        <mxCell id="srju9PipdsmLbo2pWrTp-24" value="&lt;font style=&quot;font-size: 10px;&quot;&gt;right&lt;/font&gt;" style="text;html=1;align=center;verticalAlign=middle;resizable=0;points=[];autosize=1;strokeColor=none;fillColor=none;fontSize=13;fontFamily=Helvetica;fontColor=default;" parent="1" vertex="1">
          <mxGeometry x="585" y="227.5" width="40" height="30" as="geometry" />
        </mxCell>
        <mxCell id="srju9PipdsmLbo2pWrTp-25" value="" style="endArrow=none;html=1;rounded=0;labelBackgroundColor=default;strokeColor=default;fontFamily=Helvetica;fontSize=9;fontColor=default;shape=connector;endSize=6;" parent="1" edge="1">
          <mxGeometry x="-0.4444" y="10" width="50" height="50" relative="1" as="geometry">
            <mxPoint x="525" y="290" as="sourcePoint" />
            <mxPoint x="525" y="270" as="targetPoint" />
            <mxPoint as="offset" />
          </mxGeometry>
        </mxCell>
        <mxCell id="srju9PipdsmLbo2pWrTp-27" value="" style="endArrow=none;html=1;rounded=0;labelBackgroundColor=default;strokeColor=default;fontFamily=Helvetica;fontSize=9;fontColor=default;shape=connector;endSize=6;" parent="1" edge="1">
          <mxGeometry x="-0.4444" y="10" width="50" height="50" relative="1" as="geometry">
            <mxPoint x="565" y="290" as="sourcePoint" />
            <mxPoint x="565" y="270" as="targetPoint" />
            <mxPoint as="offset" />
          </mxGeometry>
        </mxCell>
        <mxCell id="srju9PipdsmLbo2pWrTp-28" value="" style="endArrow=none;html=1;rounded=0;labelBackgroundColor=default;strokeColor=default;fontFamily=Helvetica;fontSize=9;fontColor=default;shape=connector;endSize=6;" parent="1" edge="1">
          <mxGeometry x="-0.4444" y="10" width="50" height="50" relative="1" as="geometry">
            <mxPoint x="605" y="290" as="sourcePoint" />
            <mxPoint x="605" y="270" as="targetPoint" />
            <mxPoint as="offset" />
          </mxGeometry>
        </mxCell>
        <mxCell id="srju9PipdsmLbo2pWrTp-29" value="&lt;font size=&quot;1&quot; color=&quot;#b3b3b3&quot; style=&quot;&quot;&gt;&lt;b style=&quot;font-size: 8px;&quot;&gt;1&lt;/b&gt;&lt;/font&gt;" style="text;html=1;align=center;verticalAlign=middle;resizable=0;points=[];autosize=1;strokeColor=none;fillColor=none;fontSize=9;fontFamily=Helvetica;fontColor=default;" parent="1" vertex="1">
          <mxGeometry x="509.5" y="250" width="30" height="30" as="geometry" />
        </mxCell>
        <mxCell id="srju9PipdsmLbo2pWrTp-30" value="&lt;font size=&quot;1&quot; color=&quot;#b3b3b3&quot; style=&quot;&quot;&gt;&lt;b style=&quot;font-size: 8px;&quot;&gt;2&lt;/b&gt;&lt;/font&gt;" style="text;html=1;align=center;verticalAlign=middle;resizable=0;points=[];autosize=1;strokeColor=none;fillColor=none;fontSize=9;fontFamily=Helvetica;fontColor=default;" parent="1" vertex="1">
          <mxGeometry x="550" y="250" width="30" height="30" as="geometry" />
        </mxCell>
        <mxCell id="srju9PipdsmLbo2pWrTp-31" value="&lt;font size=&quot;1&quot; color=&quot;#b3b3b3&quot; style=&quot;&quot;&gt;&lt;b style=&quot;font-size: 8px;&quot;&gt;3&lt;/b&gt;&lt;/font&gt;" style="text;html=1;align=center;verticalAlign=middle;resizable=0;points=[];autosize=1;strokeColor=none;fillColor=none;fontSize=9;fontFamily=Helvetica;fontColor=default;" parent="1" vertex="1">
          <mxGeometry x="589.5" y="250" width="30" height="30" as="geometry" />
        </mxCell>
        <mxCell id="srju9PipdsmLbo2pWrTp-36" value="*" style="text;html=1;strokeColor=none;fillColor=none;align=center;verticalAlign=middle;whiteSpace=wrap;rounded=0;sketch=0;fontFamily=Helvetica;fontSize=13;fontColor=default;opacity=50;" parent="1" vertex="1">
          <mxGeometry x="558.5" y="380" width="10" height="10" as="geometry" />
        </mxCell>
        <mxCell id="srju9PipdsmLbo2pWrTp-41" value="" style="line;strokeWidth=1.5;html=1;sketch=0;strokeColor=#000000;fontFamily=Helvetica;fontSize=7;fontColor=none;fillColor=default;opacity=20;" parent="1" vertex="1">
          <mxGeometry x="420" y="415" width="300" height="10" as="geometry" />
        </mxCell>
        <mxCell id="srju9PipdsmLbo2pWrTp-42" value="&lt;font style=&quot;font-size: 10px;&quot;&gt;left&lt;/font&gt;" style="endArrow=classic;html=1;rounded=0;labelBackgroundColor=default;strokeColor=default;strokeWidth=0.7;fontFamily=Helvetica;fontSize=12;fontColor=none;endSize=2;shape=connector;exitX=0;exitY=0.75;exitDx=0;exitDy=0;entryX=0.164;entryY=0.502;entryDx=0;entryDy=0;entryPerimeter=0;" parent="1" source="srju9PipdsmLbo2pWrTp-36" target="srju9PipdsmLbo2pWrTp-41" edge="1">
          <mxGeometry width="50" height="50" relative="1" as="geometry">
            <mxPoint x="520" y="390" as="sourcePoint" />
            <mxPoint x="520" y="410" as="targetPoint" />
          </mxGeometry>
        </mxCell>
        <mxCell id="srju9PipdsmLbo2pWrTp-43" value="&lt;font style=&quot;font-size: 10px;&quot;&gt;right&lt;/font&gt;" style="endArrow=classic;html=1;rounded=0;labelBackgroundColor=default;strokeColor=default;strokeWidth=0.7;fontFamily=Helvetica;fontSize=12;fontColor=none;endSize=2;shape=connector;exitX=1;exitY=0.75;exitDx=0;exitDy=0;entryX=1.037;entryY=0.292;entryDx=0;entryDy=0;entryPerimeter=0;" parent="1" source="srju9PipdsmLbo2pWrTp-36" target="srju9PipdsmLbo2pWrTp-71" edge="1">
          <mxGeometry width="50" height="50" relative="1" as="geometry">
            <mxPoint x="530" y="400" as="sourcePoint" />
            <mxPoint x="600" y="420" as="targetPoint" />
          </mxGeometry>
        </mxCell>
        <mxCell id="srju9PipdsmLbo2pWrTp-97" value="" style="group;fontSize=13;" parent="1" vertex="1" connectable="0">
          <mxGeometry x="400" y="415" width="130" height="210" as="geometry" />
        </mxCell>
        <mxCell id="srju9PipdsmLbo2pWrTp-78" value="" style="ellipse;whiteSpace=wrap;html=1;sketch=0;strokeColor=#000000;strokeWidth=0.7;fontFamily=Helvetica;fontSize=7;fontColor=none;fillColor=default;opacity=50;noLabel=1;" parent="srju9PipdsmLbo2pWrTp-97" vertex="1">
          <mxGeometry x="57.25" y="85" width="25.5" height="45" as="geometry" />
        </mxCell>
        <mxCell id="srju9PipdsmLbo2pWrTp-54" value="" style="shape=curlyBracket;whiteSpace=wrap;html=1;rounded=1;flipH=1;labelPosition=right;verticalLabelPosition=middle;align=left;verticalAlign=middle;direction=south;strokeWidth=0.7;" parent="srju9PipdsmLbo2pWrTp-97" vertex="1">
          <mxGeometry x="37" y="22.5" width="22" height="15" as="geometry" />
        </mxCell>
        <mxCell id="srju9PipdsmLbo2pWrTp-55" value="4" style="text;html=1;strokeColor=none;fillColor=none;align=center;verticalAlign=middle;whiteSpace=wrap;rounded=0;sketch=0;fontFamily=Helvetica;fontSize=13;fontColor=default;opacity=50;" parent="srju9PipdsmLbo2pWrTp-97" vertex="1">
          <mxGeometry x="45.5" y="44.5" width="10" height="15" as="geometry" />
        </mxCell>
        <mxCell id="srju9PipdsmLbo2pWrTp-56" value="2" style="text;html=1;strokeColor=none;fillColor=none;align=center;verticalAlign=middle;whiteSpace=wrap;rounded=0;sketch=0;fontFamily=Helvetica;fontSize=13;fontColor=default;opacity=50;" parent="srju9PipdsmLbo2pWrTp-97" vertex="1">
          <mxGeometry x="85.5" y="44.5" width="10" height="15" as="geometry" />
        </mxCell>
        <mxCell id="srju9PipdsmLbo2pWrTp-57" value="&lt;font style=&quot;font-size: 10px;&quot;&gt;left&lt;/font&gt;" style="text;html=1;align=center;verticalAlign=middle;resizable=0;points=[];autosize=1;strokeColor=none;fillColor=none;fontSize=13;fontFamily=Helvetica;fontColor=default;" parent="srju9PipdsmLbo2pWrTp-97" vertex="1">
          <mxGeometry x="28" width="40" height="30" as="geometry" />
        </mxCell>
        <mxCell id="srju9PipdsmLbo2pWrTp-58" value="" style="endArrow=none;html=1;rounded=0;labelBackgroundColor=default;strokeColor=default;fontFamily=Helvetica;fontSize=9;fontColor=default;shape=connector;endSize=6;" parent="srju9PipdsmLbo2pWrTp-97" edge="1">
          <mxGeometry x="-0.4444" y="10" width="50" height="50" relative="1" as="geometry">
            <mxPoint x="70.5" y="62.5" as="sourcePoint" />
            <mxPoint x="70.5" y="42.5" as="targetPoint" />
            <mxPoint as="offset" />
          </mxGeometry>
        </mxCell>
        <mxCell id="srju9PipdsmLbo2pWrTp-59" value="&lt;font size=&quot;1&quot; color=&quot;#b3b3b3&quot; style=&quot;&quot;&gt;&lt;b style=&quot;font-size: 8px;&quot;&gt;1&lt;/b&gt;&lt;/font&gt;" style="text;html=1;align=center;verticalAlign=middle;resizable=0;points=[];autosize=1;strokeColor=none;fillColor=none;fontSize=9;fontFamily=Helvetica;fontColor=default;" parent="srju9PipdsmLbo2pWrTp-97" vertex="1">
          <mxGeometry x="55" y="22.5" width="30" height="30" as="geometry" />
        </mxCell>
        <mxCell id="srju9PipdsmLbo2pWrTp-62" value="" style="shape=curlyBracket;whiteSpace=wrap;html=1;rounded=1;flipH=1;labelPosition=right;verticalLabelPosition=middle;align=left;verticalAlign=middle;direction=south;strokeWidth=0.7;" parent="srju9PipdsmLbo2pWrTp-97" vertex="1">
          <mxGeometry x="79.5" y="22.5" width="22" height="15" as="geometry" />
        </mxCell>
        <mxCell id="srju9PipdsmLbo2pWrTp-63" value="&lt;font style=&quot;font-size: 10px;&quot;&gt;right&lt;/font&gt;" style="text;html=1;align=center;verticalAlign=middle;resizable=0;points=[];autosize=1;strokeColor=none;fillColor=none;fontSize=13;fontFamily=Helvetica;fontColor=default;" parent="srju9PipdsmLbo2pWrTp-97" vertex="1">
          <mxGeometry x="70.5" width="40" height="30" as="geometry" />
        </mxCell>
        <mxCell id="srju9PipdsmLbo2pWrTp-81" style="edgeStyle=orthogonalEdgeStyle;shape=connector;rounded=0;orthogonalLoop=1;jettySize=auto;html=1;dashed=1;dashPattern=1 1;labelBackgroundColor=default;strokeColor=default;strokeWidth=0.7;fontFamily=Helvetica;fontSize=9;fontColor=none;endArrow=classic;endFill=1;endSize=2;" parent="srju9PipdsmLbo2pWrTp-97" source="srju9PipdsmLbo2pWrTp-74" edge="1">
          <mxGeometry relative="1" as="geometry">
            <mxPoint x="70" y="65" as="targetPoint" />
            <Array as="points">
              <mxPoint x="70" y="65" />
            </Array>
          </mxGeometry>
        </mxCell>
        <mxCell id="srju9PipdsmLbo2pWrTp-74" value="1" style="text;html=1;strokeColor=none;fillColor=none;align=center;verticalAlign=middle;whiteSpace=wrap;rounded=0;sketch=0;fontFamily=Helvetica;fontSize=13;fontColor=default;opacity=50;" parent="srju9PipdsmLbo2pWrTp-97" vertex="1">
          <mxGeometry x="65" y="85" width="10" height="10" as="geometry" />
        </mxCell>
        <mxCell id="srju9PipdsmLbo2pWrTp-75" value="H" style="text;html=1;strokeColor=none;fillColor=none;align=center;verticalAlign=middle;whiteSpace=wrap;rounded=0;sketch=0;fontFamily=Helvetica;fontSize=13;fontColor=default;opacity=50;" parent="srju9PipdsmLbo2pWrTp-97" vertex="1">
          <mxGeometry x="65" y="115" width="10" height="10" as="geometry" />
        </mxCell>
        <mxCell id="srju9PipdsmLbo2pWrTp-84" value="H" style="text;html=1;strokeColor=none;fillColor=none;align=center;verticalAlign=middle;whiteSpace=wrap;rounded=0;sketch=0;fontFamily=Helvetica;fontSize=13;fontColor=default;opacity=50;" parent="srju9PipdsmLbo2pWrTp-97" vertex="1">
          <mxGeometry x="64" y="145" width="10" height="20" as="geometry" />
        </mxCell>
        <mxCell id="srju9PipdsmLbo2pWrTp-88" style="edgeStyle=orthogonalEdgeStyle;shape=connector;rounded=0;orthogonalLoop=1;jettySize=auto;html=1;entryX=0.657;entryY=0.017;entryDx=0;entryDy=0;entryPerimeter=0;dashed=1;dashPattern=1 1;labelBackgroundColor=default;strokeColor=default;strokeWidth=0.7;fontFamily=Helvetica;fontSize=9;fontColor=none;endArrow=classic;endFill=1;endSize=2;" parent="srju9PipdsmLbo2pWrTp-97" source="srju9PipdsmLbo2pWrTp-75" target="srju9PipdsmLbo2pWrTp-84" edge="1">
          <mxGeometry relative="1" as="geometry" />
        </mxCell>
        <mxCell id="srju9PipdsmLbo2pWrTp-90" value="" style="line;strokeWidth=1.5;html=1;sketch=0;strokeColor=#000000;fontFamily=Helvetica;fontSize=7;fontColor=none;fillColor=default;opacity=20;" parent="srju9PipdsmLbo2pWrTp-97" vertex="1">
          <mxGeometry y="192" width="130" height="10" as="geometry" />
        </mxCell>
        <mxCell id="srju9PipdsmLbo2pWrTp-92" value="4" style="text;html=1;strokeColor=none;fillColor=none;align=center;verticalAlign=middle;whiteSpace=wrap;rounded=0;sketch=0;fontFamily=Helvetica;fontSize=13;fontColor=default;opacity=50;" parent="srju9PipdsmLbo2pWrTp-97" vertex="1">
          <mxGeometry x="18" y="195" width="10" height="15" as="geometry" />
        </mxCell>
        <mxCell id="srju9PipdsmLbo2pWrTp-95" value="&lt;font style=&quot;font-size: 10px;&quot;&gt;left&lt;/font&gt;" style="edgeStyle=none;shape=connector;rounded=0;orthogonalLoop=1;jettySize=auto;html=1;entryX=0.5;entryY=0;entryDx=0;entryDy=0;labelBackgroundColor=default;strokeColor=default;strokeWidth=0.7;fontFamily=Helvetica;fontSize=9;fontColor=none;endArrow=classic;endSize=2;" parent="srju9PipdsmLbo2pWrTp-97" source="srju9PipdsmLbo2pWrTp-84" target="srju9PipdsmLbo2pWrTp-92" edge="1">
          <mxGeometry relative="1" as="geometry" />
        </mxCell>
        <mxCell id="srju9PipdsmLbo2pWrTp-93" value="2" style="text;html=1;strokeColor=none;fillColor=none;align=center;verticalAlign=middle;whiteSpace=wrap;rounded=0;sketch=0;fontFamily=Helvetica;fontSize=13;fontColor=default;opacity=50;" parent="srju9PipdsmLbo2pWrTp-97" vertex="1">
          <mxGeometry x="95.5" y="195" width="10" height="15" as="geometry" />
        </mxCell>
        <mxCell id="srju9PipdsmLbo2pWrTp-96" value="&lt;font style=&quot;font-size: 10px;&quot;&gt;right&lt;/font&gt;" style="edgeStyle=none;shape=connector;rounded=0;orthogonalLoop=1;jettySize=auto;html=1;entryX=0.5;entryY=0;entryDx=0;entryDy=0;labelBackgroundColor=default;strokeColor=default;strokeWidth=0.7;fontFamily=Helvetica;fontSize=9;fontColor=none;endArrow=classic;endSize=2;" parent="srju9PipdsmLbo2pWrTp-97" source="srju9PipdsmLbo2pWrTp-84" target="srju9PipdsmLbo2pWrTp-93" edge="1">
          <mxGeometry relative="1" as="geometry" />
        </mxCell>
        <mxCell id="srju9PipdsmLbo2pWrTp-103" value="" style="group" parent="1" vertex="1" connectable="0">
          <mxGeometry x="590" y="411.25" width="130" height="213.75" as="geometry" />
        </mxCell>
        <mxCell id="srju9PipdsmLbo2pWrTp-79" value="" style="ellipse;whiteSpace=wrap;html=1;sketch=0;strokeColor=#000000;strokeWidth=0.7;fontFamily=Helvetica;fontSize=7;fontColor=none;fillColor=default;opacity=50;noLabel=1;" parent="srju9PipdsmLbo2pWrTp-103" vertex="1">
          <mxGeometry x="52.75" y="88.75" width="25.5" height="45" as="geometry" />
        </mxCell>
        <mxCell id="srju9PipdsmLbo2pWrTp-64" value="3" style="text;html=1;strokeColor=none;fillColor=none;align=center;verticalAlign=middle;whiteSpace=wrap;rounded=0;sketch=0;fontFamily=Helvetica;fontSize=13;fontColor=default;opacity=50;" parent="srju9PipdsmLbo2pWrTp-103" vertex="1">
          <mxGeometry x="39" y="45.25" width="10" height="15" as="geometry" />
        </mxCell>
        <mxCell id="srju9PipdsmLbo2pWrTp-65" value="1" style="text;html=1;strokeColor=none;fillColor=none;align=center;verticalAlign=middle;whiteSpace=wrap;rounded=0;sketch=0;fontFamily=Helvetica;fontSize=13;fontColor=default;opacity=50;" parent="srju9PipdsmLbo2pWrTp-103" vertex="1">
          <mxGeometry x="79" y="45.25" width="10" height="15" as="geometry" />
        </mxCell>
        <mxCell id="srju9PipdsmLbo2pWrTp-68" value="" style="endArrow=none;html=1;rounded=0;labelBackgroundColor=default;strokeColor=default;fontFamily=Helvetica;fontSize=9;fontColor=default;shape=connector;endSize=6;" parent="srju9PipdsmLbo2pWrTp-103" edge="1">
          <mxGeometry x="-0.4444" y="10" width="50" height="50" relative="1" as="geometry">
            <mxPoint x="64" y="63.25000000000006" as="sourcePoint" />
            <mxPoint x="64" y="43.25" as="targetPoint" />
            <mxPoint as="offset" />
          </mxGeometry>
        </mxCell>
        <mxCell id="srju9PipdsmLbo2pWrTp-69" value="&lt;font size=&quot;1&quot; color=&quot;#b3b3b3&quot; style=&quot;&quot;&gt;&lt;b style=&quot;font-size: 7px;&quot;&gt;3&lt;/b&gt;&lt;/font&gt;" style="text;html=1;align=center;verticalAlign=middle;resizable=0;points=[];autosize=1;strokeColor=none;fillColor=none;fontSize=9;fontFamily=Helvetica;fontColor=default;" parent="srju9PipdsmLbo2pWrTp-103" vertex="1">
          <mxGeometry x="48.5" y="23.25" width="30" height="30" as="geometry" />
        </mxCell>
        <mxCell id="srju9PipdsmLbo2pWrTp-70" value="" style="shape=curlyBracket;whiteSpace=wrap;html=1;rounded=1;flipH=1;labelPosition=right;verticalLabelPosition=middle;align=left;verticalAlign=middle;direction=south;strokeWidth=0.7;" parent="srju9PipdsmLbo2pWrTp-103" vertex="1">
          <mxGeometry x="31.75" y="22.5" width="22" height="15" as="geometry" />
        </mxCell>
        <mxCell id="srju9PipdsmLbo2pWrTp-71" value="&lt;font style=&quot;font-size: 10px;&quot;&gt;left&lt;/font&gt;" style="text;html=1;align=center;verticalAlign=middle;resizable=0;points=[];autosize=1;strokeColor=none;fillColor=none;fontSize=13;fontFamily=Helvetica;fontColor=default;" parent="srju9PipdsmLbo2pWrTp-103" vertex="1">
          <mxGeometry x="22.75" width="40" height="30" as="geometry" />
        </mxCell>
        <mxCell id="srju9PipdsmLbo2pWrTp-72" value="" style="shape=curlyBracket;whiteSpace=wrap;html=1;rounded=1;flipH=1;labelPosition=right;verticalLabelPosition=middle;align=left;verticalAlign=middle;direction=south;strokeWidth=0.7;" parent="srju9PipdsmLbo2pWrTp-103" vertex="1">
          <mxGeometry x="74.25" y="22.5" width="22" height="15" as="geometry" />
        </mxCell>
        <mxCell id="srju9PipdsmLbo2pWrTp-73" value="&lt;font style=&quot;font-size: 10px;&quot;&gt;right&lt;/font&gt;" style="text;html=1;align=center;verticalAlign=middle;resizable=0;points=[];autosize=1;strokeColor=none;fillColor=none;fontSize=13;fontFamily=Helvetica;fontColor=default;" parent="srju9PipdsmLbo2pWrTp-103" vertex="1">
          <mxGeometry x="65.25" width="40" height="30" as="geometry" />
        </mxCell>
        <mxCell id="srju9PipdsmLbo2pWrTp-83" style="edgeStyle=orthogonalEdgeStyle;shape=connector;rounded=0;orthogonalLoop=1;jettySize=auto;html=1;dashed=1;dashPattern=1 1;labelBackgroundColor=default;strokeColor=default;strokeWidth=0.7;fontFamily=Helvetica;fontSize=9;fontColor=none;endArrow=classic;endFill=1;endSize=2;exitX=0.441;exitY=-0.002;exitDx=0;exitDy=0;exitPerimeter=0;" parent="srju9PipdsmLbo2pWrTp-103" source="srju9PipdsmLbo2pWrTp-76" edge="1">
          <mxGeometry relative="1" as="geometry">
            <mxPoint x="64" y="63.75" as="targetPoint" />
            <Array as="points">
              <mxPoint x="63.5" y="68.75" />
              <mxPoint x="63.5" y="68.75" />
            </Array>
          </mxGeometry>
        </mxCell>
        <mxCell id="srju9PipdsmLbo2pWrTp-76" value="3" style="text;html=1;strokeColor=none;fillColor=none;align=center;verticalAlign=middle;whiteSpace=wrap;rounded=0;sketch=0;fontFamily=Helvetica;fontSize=13;fontColor=default;opacity=50;" parent="srju9PipdsmLbo2pWrTp-103" vertex="1">
          <mxGeometry x="59.5" y="88.75" width="10" height="10" as="geometry" />
        </mxCell>
        <mxCell id="srju9PipdsmLbo2pWrTp-77" value="V" style="text;html=1;strokeColor=none;fillColor=none;align=center;verticalAlign=middle;whiteSpace=wrap;rounded=0;sketch=0;fontFamily=Helvetica;fontSize=13;fontColor=default;opacity=50;" parent="srju9PipdsmLbo2pWrTp-103" vertex="1">
          <mxGeometry x="60.5" y="118.75" width="10" height="10" as="geometry" />
        </mxCell>
        <mxCell id="srju9PipdsmLbo2pWrTp-85" value="V" style="text;html=1;strokeColor=none;fillColor=none;align=center;verticalAlign=middle;whiteSpace=wrap;rounded=0;sketch=0;fontFamily=Helvetica;fontSize=13;fontColor=default;opacity=50;" parent="srju9PipdsmLbo2pWrTp-103" vertex="1">
          <mxGeometry x="60" y="153.75" width="10" height="10" as="geometry" />
        </mxCell>
        <mxCell id="srju9PipdsmLbo2pWrTp-89" style="edgeStyle=orthogonalEdgeStyle;shape=connector;rounded=0;orthogonalLoop=1;jettySize=auto;html=1;entryX=0.5;entryY=0;entryDx=0;entryDy=0;dashed=1;dashPattern=1 1;labelBackgroundColor=default;strokeColor=default;strokeWidth=0.7;fontFamily=Helvetica;fontSize=9;fontColor=none;endArrow=classic;endFill=1;endSize=2;exitX=0.446;exitY=1.006;exitDx=0;exitDy=0;exitPerimeter=0;" parent="srju9PipdsmLbo2pWrTp-103" source="srju9PipdsmLbo2pWrTp-77" target="srju9PipdsmLbo2pWrTp-85" edge="1">
          <mxGeometry relative="1" as="geometry" />
        </mxCell>
        <mxCell id="srju9PipdsmLbo2pWrTp-98" value="" style="line;strokeWidth=1.5;html=1;sketch=0;strokeColor=#000000;fontFamily=Helvetica;fontSize=7;fontColor=none;fillColor=default;opacity=20;" parent="srju9PipdsmLbo2pWrTp-103" vertex="1">
          <mxGeometry y="195.75" width="130" height="10" as="geometry" />
        </mxCell>
        <mxCell id="srju9PipdsmLbo2pWrTp-99" value="3" style="text;html=1;strokeColor=none;fillColor=none;align=center;verticalAlign=middle;whiteSpace=wrap;rounded=0;sketch=0;fontFamily=Helvetica;fontSize=13;fontColor=default;opacity=50;" parent="srju9PipdsmLbo2pWrTp-103" vertex="1">
          <mxGeometry x="18" y="198.75" width="10" height="15" as="geometry" />
        </mxCell>
        <mxCell id="srju9PipdsmLbo2pWrTp-101" value="&lt;font style=&quot;font-size: 10px;&quot;&gt;left&lt;/font&gt;" style="edgeStyle=none;shape=connector;rounded=0;orthogonalLoop=1;jettySize=auto;html=1;entryX=0.5;entryY=0;entryDx=0;entryDy=0;labelBackgroundColor=default;strokeColor=default;strokeWidth=0.7;fontFamily=Helvetica;fontSize=9;fontColor=none;endArrow=classic;endSize=2;" parent="srju9PipdsmLbo2pWrTp-103" source="srju9PipdsmLbo2pWrTp-85" target="srju9PipdsmLbo2pWrTp-99" edge="1">
          <mxGeometry relative="1" as="geometry" />
        </mxCell>
        <mxCell id="srju9PipdsmLbo2pWrTp-100" value="1" style="text;html=1;strokeColor=none;fillColor=none;align=center;verticalAlign=middle;whiteSpace=wrap;rounded=0;sketch=0;fontFamily=Helvetica;fontSize=13;fontColor=default;opacity=50;" parent="srju9PipdsmLbo2pWrTp-103" vertex="1">
          <mxGeometry x="95.5" y="198.75" width="10" height="15" as="geometry" />
        </mxCell>
        <mxCell id="srju9PipdsmLbo2pWrTp-102" value="&lt;font style=&quot;font-size: 10px;&quot;&gt;right&lt;/font&gt;" style="edgeStyle=none;shape=connector;rounded=0;orthogonalLoop=1;jettySize=auto;html=1;entryX=0.5;entryY=0;entryDx=0;entryDy=0;labelBackgroundColor=default;strokeColor=default;strokeWidth=0.7;fontFamily=Helvetica;fontSize=9;fontColor=none;endArrow=classic;endSize=2;" parent="srju9PipdsmLbo2pWrTp-103" source="srju9PipdsmLbo2pWrTp-85" target="srju9PipdsmLbo2pWrTp-100" edge="1">
          <mxGeometry relative="1" as="geometry" />
        </mxCell>
        <mxCell id="srju9PipdsmLbo2pWrTp-144" value="&lt;font style=&quot;font-size: 13px;&quot;&gt;1) resolved slicing tree,&lt;br&gt;case * is&amp;nbsp;H&lt;/font&gt;" style="text;html=1;align=center;verticalAlign=middle;resizable=0;points=[];autosize=1;strokeColor=none;fillColor=none;fontSize=13;fontFamily=Helvetica;fontColor=none;" parent="1" vertex="1">
          <mxGeometry x="765" y="416.25" width="160" height="40" as="geometry" />
        </mxCell>
        <mxCell id="srju9PipdsmLbo2pWrTp-145" value="" style="group" parent="1" vertex="1" connectable="0">
          <mxGeometry x="850" y="310" width="150" height="95" as="geometry" />
        </mxCell>
        <mxCell id="srju9PipdsmLbo2pWrTp-106" value="*" style="text;html=1;align=center;verticalAlign=middle;resizable=0;points=[[0.37,0.6,0,0,0],[0.7,0.6,0,0,0]];autosize=1;strokeColor=none;fillColor=none;fontSize=13;fontFamily=Helvetica;fontColor=none;" parent="srju9PipdsmLbo2pWrTp-145" vertex="1">
          <mxGeometry x="60" width="30" height="30" as="geometry" />
        </mxCell>
        <mxCell id="srju9PipdsmLbo2pWrTp-108" value="H" style="text;html=1;align=center;verticalAlign=middle;resizable=0;points=[[0.37,0.7,0,0,0],[0.67,0.3,0,0,0],[0.67,0.7,0,0,0]];autosize=1;strokeColor=none;fillColor=none;fontSize=13;fontFamily=Helvetica;fontColor=none;" parent="srju9PipdsmLbo2pWrTp-145" vertex="1">
          <mxGeometry x="25" y="30" width="30" height="30" as="geometry" />
        </mxCell>
        <mxCell id="srju9PipdsmLbo2pWrTp-121" style="edgeStyle=none;shape=connector;rounded=0;orthogonalLoop=1;jettySize=auto;html=1;entryX=0.67;entryY=0.3;entryDx=0;entryDy=0;entryPerimeter=0;labelBackgroundColor=default;strokeColor=default;strokeWidth=0.7;fontFamily=Helvetica;fontSize=13;fontColor=none;endArrow=none;endFill=0;endSize=2;exitX=0.37;exitY=0.6;exitDx=0;exitDy=0;exitPerimeter=0;" parent="srju9PipdsmLbo2pWrTp-145" source="srju9PipdsmLbo2pWrTp-106" target="srju9PipdsmLbo2pWrTp-108" edge="1">
          <mxGeometry relative="1" as="geometry" />
        </mxCell>
        <mxCell id="srju9PipdsmLbo2pWrTp-110" value="4" style="text;html=1;align=center;verticalAlign=middle;resizable=0;points=[[0.7,0.23,0,0,0]];autosize=1;strokeColor=none;fillColor=none;fontSize=13;fontFamily=Helvetica;fontColor=none;" parent="srju9PipdsmLbo2pWrTp-145" vertex="1">
          <mxGeometry y="65" width="30" height="30" as="geometry" />
        </mxCell>
        <mxCell id="srju9PipdsmLbo2pWrTp-130" style="edgeStyle=none;shape=connector;rounded=0;orthogonalLoop=1;jettySize=auto;html=1;entryX=0.7;entryY=0.23;entryDx=0;entryDy=0;entryPerimeter=0;labelBackgroundColor=default;strokeColor=default;strokeWidth=0.7;fontFamily=Helvetica;fontSize=13;fontColor=none;endArrow=none;endFill=0;endSize=2;exitX=0.37;exitY=0.7;exitDx=0;exitDy=0;exitPerimeter=0;" parent="srju9PipdsmLbo2pWrTp-145" source="srju9PipdsmLbo2pWrTp-108" target="srju9PipdsmLbo2pWrTp-110" edge="1">
          <mxGeometry relative="1" as="geometry" />
        </mxCell>
        <mxCell id="srju9PipdsmLbo2pWrTp-111" value="2" style="text;html=1;align=center;verticalAlign=middle;resizable=0;points=[[0.4,0.27,0,0,0]];autosize=1;strokeColor=none;fillColor=none;fontSize=13;fontFamily=Helvetica;fontColor=none;" parent="srju9PipdsmLbo2pWrTp-145" vertex="1">
          <mxGeometry x="50" y="65" width="30" height="30" as="geometry" />
        </mxCell>
        <mxCell id="srju9PipdsmLbo2pWrTp-131" style="edgeStyle=none;shape=connector;rounded=0;orthogonalLoop=1;jettySize=auto;html=1;entryX=0.4;entryY=0.27;entryDx=0;entryDy=0;entryPerimeter=0;labelBackgroundColor=default;strokeColor=default;strokeWidth=0.7;fontFamily=Helvetica;fontSize=13;fontColor=none;endArrow=none;endFill=0;endSize=2;exitX=0.67;exitY=0.7;exitDx=0;exitDy=0;exitPerimeter=0;" parent="srju9PipdsmLbo2pWrTp-145" source="srju9PipdsmLbo2pWrTp-108" target="srju9PipdsmLbo2pWrTp-111" edge="1">
          <mxGeometry relative="1" as="geometry" />
        </mxCell>
        <mxCell id="srju9PipdsmLbo2pWrTp-135" value="V" style="text;html=1;align=center;verticalAlign=middle;resizable=0;points=[[0.37,0.3,0,0,0],[0.37,0.7,0,0,0],[0.67,0.3,0,0,0],[0.67,0.7,0,0,0]];autosize=1;strokeColor=none;fillColor=none;fontSize=13;fontFamily=Helvetica;fontColor=none;" parent="srju9PipdsmLbo2pWrTp-145" vertex="1">
          <mxGeometry x="95" y="30" width="30" height="30" as="geometry" />
        </mxCell>
        <mxCell id="srju9PipdsmLbo2pWrTp-138" style="edgeStyle=none;shape=connector;rounded=0;orthogonalLoop=1;jettySize=auto;html=1;entryX=0.37;entryY=0.3;entryDx=0;entryDy=0;entryPerimeter=0;labelBackgroundColor=default;strokeColor=default;strokeWidth=0.7;fontFamily=Helvetica;fontSize=13;fontColor=none;endArrow=none;endFill=0;endSize=2;exitX=0.7;exitY=0.6;exitDx=0;exitDy=0;exitPerimeter=0;" parent="srju9PipdsmLbo2pWrTp-145" source="srju9PipdsmLbo2pWrTp-106" target="srju9PipdsmLbo2pWrTp-135" edge="1">
          <mxGeometry relative="1" as="geometry" />
        </mxCell>
        <mxCell id="srju9PipdsmLbo2pWrTp-136" value="3" style="text;html=1;align=center;verticalAlign=middle;resizable=0;points=[[0.7,0.23,0,0,0]];autosize=1;strokeColor=none;fillColor=none;fontSize=13;fontFamily=Helvetica;fontColor=none;" parent="srju9PipdsmLbo2pWrTp-145" vertex="1">
          <mxGeometry x="70" y="65" width="30" height="30" as="geometry" />
        </mxCell>
        <mxCell id="srju9PipdsmLbo2pWrTp-133" style="edgeStyle=none;shape=connector;rounded=0;orthogonalLoop=1;jettySize=auto;html=1;entryX=0.7;entryY=0.23;entryDx=0;entryDy=0;entryPerimeter=0;labelBackgroundColor=default;strokeColor=default;strokeWidth=0.7;fontFamily=Helvetica;fontSize=13;fontColor=none;endArrow=none;endFill=0;endSize=2;exitX=0.37;exitY=0.7;exitDx=0;exitDy=0;exitPerimeter=0;" parent="srju9PipdsmLbo2pWrTp-145" source="srju9PipdsmLbo2pWrTp-135" target="srju9PipdsmLbo2pWrTp-136" edge="1">
          <mxGeometry relative="1" as="geometry" />
        </mxCell>
        <mxCell id="srju9PipdsmLbo2pWrTp-137" value="1" style="text;html=1;align=center;verticalAlign=middle;resizable=0;points=[[0.4,0.27,0,0,0]];autosize=1;strokeColor=none;fillColor=none;fontSize=13;fontFamily=Helvetica;fontColor=none;" parent="srju9PipdsmLbo2pWrTp-145" vertex="1">
          <mxGeometry x="120" y="65" width="30" height="30" as="geometry" />
        </mxCell>
        <mxCell id="srju9PipdsmLbo2pWrTp-134" style="edgeStyle=none;shape=connector;rounded=0;orthogonalLoop=1;jettySize=auto;html=1;entryX=0.4;entryY=0.27;entryDx=0;entryDy=0;entryPerimeter=0;labelBackgroundColor=default;strokeColor=default;strokeWidth=0.7;fontFamily=Helvetica;fontSize=13;fontColor=none;endArrow=none;endFill=0;endSize=2;exitX=0.67;exitY=0.7;exitDx=0;exitDy=0;exitPerimeter=0;" parent="srju9PipdsmLbo2pWrTp-145" source="srju9PipdsmLbo2pWrTp-135" target="srju9PipdsmLbo2pWrTp-137" edge="1">
          <mxGeometry relative="1" as="geometry" />
        </mxCell>
        <mxCell id="srju9PipdsmLbo2pWrTp-160" value="" style="group" parent="1" vertex="1" connectable="0">
          <mxGeometry x="940" y="455" width="150" height="95" as="geometry" />
        </mxCell>
        <mxCell id="srju9PipdsmLbo2pWrTp-161" value="V" style="text;html=1;align=center;verticalAlign=middle;resizable=0;points=[[0.37,0.6,0,0,0],[0.7,0.6,0,0,0]];autosize=1;strokeColor=none;fillColor=none;fontSize=13;fontFamily=Helvetica;fontColor=none;" parent="srju9PipdsmLbo2pWrTp-160" vertex="1">
          <mxGeometry x="60" width="30" height="30" as="geometry" />
        </mxCell>
        <mxCell id="srju9PipdsmLbo2pWrTp-162" value="H" style="text;html=1;align=center;verticalAlign=middle;resizable=0;points=[[0.37,0.7,0,0,0],[0.67,0.3,0,0,0],[0.67,0.7,0,0,0]];autosize=1;strokeColor=none;fillColor=none;fontSize=13;fontFamily=Helvetica;fontColor=none;" parent="srju9PipdsmLbo2pWrTp-160" vertex="1">
          <mxGeometry x="25" y="30" width="30" height="30" as="geometry" />
        </mxCell>
        <mxCell id="srju9PipdsmLbo2pWrTp-163" style="edgeStyle=none;shape=connector;rounded=0;orthogonalLoop=1;jettySize=auto;html=1;entryX=0.67;entryY=0.3;entryDx=0;entryDy=0;entryPerimeter=0;labelBackgroundColor=default;strokeColor=default;strokeWidth=0.7;fontFamily=Helvetica;fontSize=13;fontColor=none;endArrow=none;endFill=0;endSize=2;exitX=0.37;exitY=0.6;exitDx=0;exitDy=0;exitPerimeter=0;" parent="srju9PipdsmLbo2pWrTp-160" source="srju9PipdsmLbo2pWrTp-161" target="srju9PipdsmLbo2pWrTp-162" edge="1">
          <mxGeometry relative="1" as="geometry" />
        </mxCell>
        <mxCell id="srju9PipdsmLbo2pWrTp-164" value="4" style="text;html=1;align=center;verticalAlign=middle;resizable=0;points=[[0.7,0.23,0,0,0]];autosize=1;strokeColor=none;fillColor=none;fontSize=13;fontFamily=Helvetica;fontColor=none;" parent="srju9PipdsmLbo2pWrTp-160" vertex="1">
          <mxGeometry y="65" width="30" height="30" as="geometry" />
        </mxCell>
        <mxCell id="srju9PipdsmLbo2pWrTp-165" style="edgeStyle=none;shape=connector;rounded=0;orthogonalLoop=1;jettySize=auto;html=1;entryX=0.7;entryY=0.23;entryDx=0;entryDy=0;entryPerimeter=0;labelBackgroundColor=default;strokeColor=default;strokeWidth=0.7;fontFamily=Helvetica;fontSize=13;fontColor=none;endArrow=none;endFill=0;endSize=2;exitX=0.37;exitY=0.7;exitDx=0;exitDy=0;exitPerimeter=0;" parent="srju9PipdsmLbo2pWrTp-160" source="srju9PipdsmLbo2pWrTp-162" target="srju9PipdsmLbo2pWrTp-164" edge="1">
          <mxGeometry relative="1" as="geometry" />
        </mxCell>
        <mxCell id="srju9PipdsmLbo2pWrTp-166" value="2" style="text;html=1;align=center;verticalAlign=middle;resizable=0;points=[[0.4,0.27,0,0,0]];autosize=1;strokeColor=none;fillColor=none;fontSize=13;fontFamily=Helvetica;fontColor=none;" parent="srju9PipdsmLbo2pWrTp-160" vertex="1">
          <mxGeometry x="50" y="65" width="30" height="30" as="geometry" />
        </mxCell>
        <mxCell id="srju9PipdsmLbo2pWrTp-167" style="edgeStyle=none;shape=connector;rounded=0;orthogonalLoop=1;jettySize=auto;html=1;entryX=0.4;entryY=0.27;entryDx=0;entryDy=0;entryPerimeter=0;labelBackgroundColor=default;strokeColor=default;strokeWidth=0.7;fontFamily=Helvetica;fontSize=13;fontColor=none;endArrow=none;endFill=0;endSize=2;exitX=0.67;exitY=0.7;exitDx=0;exitDy=0;exitPerimeter=0;" parent="srju9PipdsmLbo2pWrTp-160" source="srju9PipdsmLbo2pWrTp-162" target="srju9PipdsmLbo2pWrTp-166" edge="1">
          <mxGeometry relative="1" as="geometry" />
        </mxCell>
        <mxCell id="srju9PipdsmLbo2pWrTp-168" value="V" style="text;html=1;align=center;verticalAlign=middle;resizable=0;points=[[0.37,0.3,0,0,0],[0.37,0.7,0,0,0],[0.67,0.3,0,0,0],[0.67,0.7,0,0,0]];autosize=1;strokeColor=none;fillColor=none;fontSize=13;fontFamily=Helvetica;fontColor=none;" parent="srju9PipdsmLbo2pWrTp-160" vertex="1">
          <mxGeometry x="95" y="30" width="30" height="30" as="geometry" />
        </mxCell>
        <mxCell id="srju9PipdsmLbo2pWrTp-169" style="edgeStyle=none;shape=connector;rounded=0;orthogonalLoop=1;jettySize=auto;html=1;entryX=0.37;entryY=0.3;entryDx=0;entryDy=0;entryPerimeter=0;labelBackgroundColor=default;strokeColor=default;strokeWidth=0.7;fontFamily=Helvetica;fontSize=13;fontColor=none;endArrow=none;endFill=0;endSize=2;exitX=0.7;exitY=0.6;exitDx=0;exitDy=0;exitPerimeter=0;" parent="srju9PipdsmLbo2pWrTp-160" source="srju9PipdsmLbo2pWrTp-161" target="srju9PipdsmLbo2pWrTp-168" edge="1">
          <mxGeometry relative="1" as="geometry" />
        </mxCell>
        <mxCell id="srju9PipdsmLbo2pWrTp-170" value="3" style="text;html=1;align=center;verticalAlign=middle;resizable=0;points=[[0.7,0.23,0,0,0]];autosize=1;strokeColor=none;fillColor=none;fontSize=13;fontFamily=Helvetica;fontColor=none;" parent="srju9PipdsmLbo2pWrTp-160" vertex="1">
          <mxGeometry x="70" y="65" width="30" height="30" as="geometry" />
        </mxCell>
        <mxCell id="srju9PipdsmLbo2pWrTp-171" style="edgeStyle=none;shape=connector;rounded=0;orthogonalLoop=1;jettySize=auto;html=1;entryX=0.7;entryY=0.23;entryDx=0;entryDy=0;entryPerimeter=0;labelBackgroundColor=default;strokeColor=default;strokeWidth=0.7;fontFamily=Helvetica;fontSize=13;fontColor=none;endArrow=none;endFill=0;endSize=2;exitX=0.37;exitY=0.7;exitDx=0;exitDy=0;exitPerimeter=0;" parent="srju9PipdsmLbo2pWrTp-160" source="srju9PipdsmLbo2pWrTp-168" target="srju9PipdsmLbo2pWrTp-170" edge="1">
          <mxGeometry relative="1" as="geometry" />
        </mxCell>
        <mxCell id="srju9PipdsmLbo2pWrTp-172" value="1" style="text;html=1;align=center;verticalAlign=middle;resizable=0;points=[[0.4,0.27,0,0,0]];autosize=1;strokeColor=none;fillColor=none;fontSize=13;fontFamily=Helvetica;fontColor=none;" parent="srju9PipdsmLbo2pWrTp-160" vertex="1">
          <mxGeometry x="120" y="65" width="30" height="30" as="geometry" />
        </mxCell>
        <mxCell id="srju9PipdsmLbo2pWrTp-173" style="edgeStyle=none;shape=connector;rounded=0;orthogonalLoop=1;jettySize=auto;html=1;entryX=0.4;entryY=0.27;entryDx=0;entryDy=0;entryPerimeter=0;labelBackgroundColor=default;strokeColor=default;strokeWidth=0.7;fontFamily=Helvetica;fontSize=13;fontColor=none;endArrow=none;endFill=0;endSize=2;exitX=0.67;exitY=0.7;exitDx=0;exitDy=0;exitPerimeter=0;" parent="srju9PipdsmLbo2pWrTp-160" source="srju9PipdsmLbo2pWrTp-168" target="srju9PipdsmLbo2pWrTp-172" edge="1">
          <mxGeometry relative="1" as="geometry" />
        </mxCell>
        <mxCell id="srju9PipdsmLbo2pWrTp-193" value="" style="group" parent="1" vertex="1" connectable="0">
          <mxGeometry x="765" y="451.25" width="150" height="95" as="geometry" />
        </mxCell>
        <mxCell id="srju9PipdsmLbo2pWrTp-194" value="H" style="text;html=1;align=center;verticalAlign=middle;resizable=0;points=[[0.37,0.6,0,0,0],[0.7,0.6,0,0,0]];autosize=1;strokeColor=none;fillColor=none;fontSize=13;fontFamily=Helvetica;fontColor=none;" parent="srju9PipdsmLbo2pWrTp-193" vertex="1">
          <mxGeometry x="60" width="30" height="30" as="geometry" />
        </mxCell>
        <mxCell id="srju9PipdsmLbo2pWrTp-195" value="H" style="text;html=1;align=center;verticalAlign=middle;resizable=0;points=[[0.37,0.7,0,0,0],[0.67,0.3,0,0,0],[0.67,0.7,0,0,0]];autosize=1;strokeColor=none;fillColor=none;fontSize=13;fontFamily=Helvetica;fontColor=none;" parent="srju9PipdsmLbo2pWrTp-193" vertex="1">
          <mxGeometry x="25" y="30" width="30" height="30" as="geometry" />
        </mxCell>
        <mxCell id="srju9PipdsmLbo2pWrTp-196" style="edgeStyle=none;shape=connector;rounded=0;orthogonalLoop=1;jettySize=auto;html=1;entryX=0.67;entryY=0.3;entryDx=0;entryDy=0;entryPerimeter=0;labelBackgroundColor=default;strokeColor=default;strokeWidth=0.7;fontFamily=Helvetica;fontSize=13;fontColor=none;endArrow=none;endFill=0;endSize=2;exitX=0.37;exitY=0.6;exitDx=0;exitDy=0;exitPerimeter=0;" parent="srju9PipdsmLbo2pWrTp-193" source="srju9PipdsmLbo2pWrTp-194" target="srju9PipdsmLbo2pWrTp-195" edge="1">
          <mxGeometry relative="1" as="geometry" />
        </mxCell>
        <mxCell id="srju9PipdsmLbo2pWrTp-197" value="4" style="text;html=1;align=center;verticalAlign=middle;resizable=0;points=[[0.7,0.23,0,0,0]];autosize=1;strokeColor=none;fillColor=none;fontSize=13;fontFamily=Helvetica;fontColor=none;" parent="srju9PipdsmLbo2pWrTp-193" vertex="1">
          <mxGeometry y="65" width="30" height="30" as="geometry" />
        </mxCell>
        <mxCell id="srju9PipdsmLbo2pWrTp-198" style="edgeStyle=none;shape=connector;rounded=0;orthogonalLoop=1;jettySize=auto;html=1;entryX=0.7;entryY=0.23;entryDx=0;entryDy=0;entryPerimeter=0;labelBackgroundColor=default;strokeColor=default;strokeWidth=0.7;fontFamily=Helvetica;fontSize=13;fontColor=none;endArrow=none;endFill=0;endSize=2;exitX=0.37;exitY=0.7;exitDx=0;exitDy=0;exitPerimeter=0;" parent="srju9PipdsmLbo2pWrTp-193" source="srju9PipdsmLbo2pWrTp-195" target="srju9PipdsmLbo2pWrTp-197" edge="1">
          <mxGeometry relative="1" as="geometry" />
        </mxCell>
        <mxCell id="srju9PipdsmLbo2pWrTp-199" value="2" style="text;html=1;align=center;verticalAlign=middle;resizable=0;points=[[0.4,0.27,0,0,0]];autosize=1;strokeColor=none;fillColor=none;fontSize=13;fontFamily=Helvetica;fontColor=none;" parent="srju9PipdsmLbo2pWrTp-193" vertex="1">
          <mxGeometry x="50" y="65" width="30" height="30" as="geometry" />
        </mxCell>
        <mxCell id="srju9PipdsmLbo2pWrTp-200" style="edgeStyle=none;shape=connector;rounded=0;orthogonalLoop=1;jettySize=auto;html=1;entryX=0.4;entryY=0.27;entryDx=0;entryDy=0;entryPerimeter=0;labelBackgroundColor=default;strokeColor=default;strokeWidth=0.7;fontFamily=Helvetica;fontSize=13;fontColor=none;endArrow=none;endFill=0;endSize=2;exitX=0.67;exitY=0.7;exitDx=0;exitDy=0;exitPerimeter=0;" parent="srju9PipdsmLbo2pWrTp-193" source="srju9PipdsmLbo2pWrTp-195" target="srju9PipdsmLbo2pWrTp-199" edge="1">
          <mxGeometry relative="1" as="geometry" />
        </mxCell>
        <mxCell id="srju9PipdsmLbo2pWrTp-201" value="V" style="text;html=1;align=center;verticalAlign=middle;resizable=0;points=[[0.37,0.3,0,0,0],[0.37,0.7,0,0,0],[0.67,0.3,0,0,0],[0.67,0.7,0,0,0]];autosize=1;strokeColor=none;fillColor=none;fontSize=13;fontFamily=Helvetica;fontColor=none;" parent="srju9PipdsmLbo2pWrTp-193" vertex="1">
          <mxGeometry x="95" y="30" width="30" height="30" as="geometry" />
        </mxCell>
        <mxCell id="srju9PipdsmLbo2pWrTp-202" style="edgeStyle=none;shape=connector;rounded=0;orthogonalLoop=1;jettySize=auto;html=1;entryX=0.37;entryY=0.3;entryDx=0;entryDy=0;entryPerimeter=0;labelBackgroundColor=default;strokeColor=default;strokeWidth=0.7;fontFamily=Helvetica;fontSize=13;fontColor=none;endArrow=none;endFill=0;endSize=2;exitX=0.7;exitY=0.6;exitDx=0;exitDy=0;exitPerimeter=0;" parent="srju9PipdsmLbo2pWrTp-193" source="srju9PipdsmLbo2pWrTp-194" target="srju9PipdsmLbo2pWrTp-201" edge="1">
          <mxGeometry relative="1" as="geometry" />
        </mxCell>
        <mxCell id="srju9PipdsmLbo2pWrTp-203" value="3" style="text;html=1;align=center;verticalAlign=middle;resizable=0;points=[[0.7,0.23,0,0,0]];autosize=1;strokeColor=none;fillColor=none;fontSize=13;fontFamily=Helvetica;fontColor=none;" parent="srju9PipdsmLbo2pWrTp-193" vertex="1">
          <mxGeometry x="70" y="65" width="30" height="30" as="geometry" />
        </mxCell>
        <mxCell id="srju9PipdsmLbo2pWrTp-204" style="edgeStyle=none;shape=connector;rounded=0;orthogonalLoop=1;jettySize=auto;html=1;entryX=0.7;entryY=0.23;entryDx=0;entryDy=0;entryPerimeter=0;labelBackgroundColor=default;strokeColor=default;strokeWidth=0.7;fontFamily=Helvetica;fontSize=13;fontColor=none;endArrow=none;endFill=0;endSize=2;exitX=0.37;exitY=0.7;exitDx=0;exitDy=0;exitPerimeter=0;" parent="srju9PipdsmLbo2pWrTp-193" source="srju9PipdsmLbo2pWrTp-201" target="srju9PipdsmLbo2pWrTp-203" edge="1">
          <mxGeometry relative="1" as="geometry" />
        </mxCell>
        <mxCell id="srju9PipdsmLbo2pWrTp-205" value="1" style="text;html=1;align=center;verticalAlign=middle;resizable=0;points=[[0.4,0.27,0,0,0]];autosize=1;strokeColor=none;fillColor=none;fontSize=13;fontFamily=Helvetica;fontColor=none;" parent="srju9PipdsmLbo2pWrTp-193" vertex="1">
          <mxGeometry x="120" y="65" width="30" height="30" as="geometry" />
        </mxCell>
        <mxCell id="srju9PipdsmLbo2pWrTp-206" style="edgeStyle=none;shape=connector;rounded=0;orthogonalLoop=1;jettySize=auto;html=1;entryX=0.4;entryY=0.27;entryDx=0;entryDy=0;entryPerimeter=0;labelBackgroundColor=default;strokeColor=default;strokeWidth=0.7;fontFamily=Helvetica;fontSize=13;fontColor=none;endArrow=none;endFill=0;endSize=2;exitX=0.67;exitY=0.7;exitDx=0;exitDy=0;exitPerimeter=0;" parent="srju9PipdsmLbo2pWrTp-193" source="srju9PipdsmLbo2pWrTp-201" target="srju9PipdsmLbo2pWrTp-205" edge="1">
          <mxGeometry relative="1" as="geometry" />
        </mxCell>
        <mxCell id="srju9PipdsmLbo2pWrTp-207" value="&lt;font style=&quot;font-size: 13px;&quot;&gt;2) resolved slicing tree,&lt;br&gt;case * is&amp;nbsp; V&lt;/font&gt;" style="text;html=1;align=center;verticalAlign=middle;resizable=0;points=[];autosize=1;strokeColor=none;fillColor=none;fontSize=13;fontFamily=Helvetica;fontColor=none;" parent="1" vertex="1">
          <mxGeometry x="935" y="420" width="160" height="40" as="geometry" />
        </mxCell>
        <mxCell id="srju9PipdsmLbo2pWrTp-220" value="&lt;font style=&quot;font-size: 13px;&quot;&gt;unresolved slicing tree&lt;/font&gt;" style="text;html=1;align=center;verticalAlign=middle;resizable=0;points=[];autosize=1;strokeColor=none;fillColor=none;fontSize=13;fontFamily=Helvetica;fontColor=none;" parent="1" vertex="1">
          <mxGeometry x="850" y="285" width="150" height="30" as="geometry" />
        </mxCell>
      </root>
    </mxGraphModel>
  </diagram>
</mxfile>
